<svg xmlns="http://www.w3.org/2000/svg" viewBox="0 0 512 512" role="img" aria-label="SIMOBS">
  <rect width="512" height="512" rx="96" fill="#171814"/>
  <path d="M126 314h260c18 0 32 14 32 32v30H94v-30c0-18 14-32 32-32Z" fill="#c09a52"/>
  <path d="M143 292l34-83c10-25 32-41 59-41h64c27 0 50 16 60 41l34 83H143Z" fill="#f4efe5"/>
  <path d="M199 214h115c10 0 19 6 23 15l17 42H159l17-42c4-9 13-15 23-15Z" fill="#263142"/>
  <circle cx="165" cy="376" r="38" fill="#263142"/>
  <circle cx="347" cy="376" r="38" fill="#263142"/>
  <circle cx="165" cy="376" r="16" fill="#f4efe5"/>
  <circle cx="347" cy="376" r="16" fill="#f4efe5"/>
  <path d="M178 132h156" stroke="#c09a52" stroke-width="26" stroke-linecap="round"/>
</svg>
